<?xml version="1.0" encoding="utf-8"?>
<!-- Generator: Adobe Illustrator 19.0.0, SVG Export Plug-In . SVG Version: 6.00 Build 0)  -->
<svg version="1.1" id="Layer_1" xmlns="http://www.w3.org/2000/svg" xmlns:xlink="http://www.w3.org/1999/xlink" x="0px" y="0px"
	 viewBox="0 0 400 300" style="enable-background:new 0 0 400 300;" xml:space="preserve">
<style type="text/css">
	.st0{fill:#F15A24;stroke:#F15A24;stroke-width:3;stroke-miterlimit:10;}
	.st1{fill:none;stroke:#534741;stroke-width:3;stroke-miterlimit:10;}
	.st2{fill:#534741;stroke:#534741;stroke-width:3;stroke-miterlimit:10;}
	.st3{fill:none;stroke:#000000;stroke-width:5;stroke-miterlimit:10;}
	.st4{fill:#F7931E;stroke:#534741;stroke-width:3;stroke-miterlimit:10;}
	.st5{fill:#FCEE21;stroke:#FCEE21;stroke-width:3;stroke-miterlimit:10;}
	.st6{fill:none;stroke:#000000;stroke-width:3;stroke-miterlimit:10;}
	.st7{fill:none;stroke:#FBB03B;stroke-width:3;stroke-miterlimit:10;}
	.st8{fill:#8C6239;stroke:#8C6239;stroke-width:3;stroke-miterlimit:10;}
	.st9{fill:#754C24;stroke:#754C24;stroke-width:3;stroke-miterlimit:10;}
	.st10{fill:none;stroke:#8C6239;stroke-width:3;stroke-miterlimit:10;}
</style>
<path class="st0" d="M127.5,135.3v13.8c3.6,2.9,7.2,5.7,10.8,8.6c3.4-2.9,6.8-5.8,10.2-8.7v-13.7c-0.6-0.6-4.6-4.4-10.8-4.3
	C131.8,131.1,128.2,134.6,127.5,135.3z"/>
<circle class="st1" cx="91.2" cy="143.5" r="13.5"/>
<circle class="st2" cx="90.8" cy="143.8" r="7.5"/>
<line class="st1" x1="97.7" y1="131.7" x2="133.7" y2="158.8"/>
<line class="st1" x1="120.2" y1="183" x2="198.3" y2="180"/>
<line class="st3" x1="315.5" y1="130" x2="315.5" y2="207"/>
<circle class="st4" cx="195.5" cy="188.5" r="8.5"/>
<circle class="st4" cx="120.2" cy="196.5" r="13.5"/>
<line class="st1" x1="195.5" y1="197" x2="120.2" y2="210"/>
<line class="st1" x1="88" y1="156.6" x2="120.3" y2="166.6"/>
<circle class="st5" cx="120.5" cy="196.8" r="7.5"/>
<line class="st6" x1="249.5" y1="114" x2="249.5" y2="182"/>
<line class="st6" x1="259" y1="114.5" x2="242" y2="114.5"/>
<line class="st7" x1="243.5" y1="115" x2="243.5" y2="107"/>
<path class="st6" d="M150,107.4c1,9.6,5.1,16.3,5.1,16.3"/>
<path class="st6" d="M155.2,102.2c3.1,3,6,4,6,4"/>
<path class="st6" d="M180.1,108.8c3.8-0.9,7.7,0.8,9.4,4c1.9,3.7,0.5,8.6-3.4,11"/>
<path class="st8" d="M177.9,111h-14.5c-1.2,0-2.3-1-2.3-2.3v-2.5c0-1.2,1-2.3,2.3-2.3h14.5c1.2,0,2.3,1,2.3,2.3v2.5
	C180.1,110,179.1,111,177.9,111z"/>
<path class="st9" d="M150,107.4L150,107.4c-2.8,0-5.1-2.3-5.1-5.1v-9.8c0-2.8,2.3-5.1,5.1-5.1l0,0c2.8,0,5.1,2.3,5.1,5.1v9.8
	C155.2,105.1,152.9,107.4,150,107.4z"/>
<line class="st6" x1="169.5" y1="145.5" x2="166.3" y2="133.3"/>
<line class="st6" x1="176.9" y1="145.3" x2="180.1" y2="133.3"/>
<path class="st8" d="M181.9,133.3h-22.5c-2.8,0-5.1-2.3-5.1-5.1v-1.5c0-2.8,2.3-5.1,5.1-5.1h22.5c2.8,0,5.1,2.3,5.1,5.1v1.5
	C187,131,184.7,133.3,181.9,133.3z"/>
<path class="st10" d="M176.9,145.3c0.3,2.6,0.8,5.9,1.7,10.3c2.2,10.9,3.3,16.3,4.9,18.1c4.3,4.7,11,5.3,42.1,5.1
	c8.7-0.1,16.1-0.2,21.8-0.2"/>
<line class="st6" x1="164" y1="145.5" x2="183" y2="145.5"/>
<circle class="st5" cx="315.5" cy="205.8" r="7.5"/>
<line class="st6" x1="233.2" y1="111.1" x2="165.2" y2="181.1"/>
<rect x="120.3" y="158.8" class="st8" width="49.2" height="22.7"/>
<path class="st3" d="M315,151.7c-2.1,0.4-5.5,1-9.7,1.7c-14.2,2.4-15.7,3.1-17,3.7c-5.2,2.3-8.2,6.2-13.3,11.8
	c-4.5,5-7.6,9.7-9.7,13.7c-35.4,0-70.9,0-106.3,0c-0.7-2-1.5-3.7-2.3-4.7c-5.8-7.3-16.9-6.7-45-6.9c-6.3,0-11.2-0.2-14-0.3"/>
<line id="XMLID_1_" class="st1" x1="80.9" y1="134.7" x2="101" y2="152.7"/>
<line id="XMLID_2_" class="st1" x1="99.9" y1="133.3" x2="82.2" y2="153.6"/>
</svg>
