<?xml version="1.0" encoding="utf-8"?>
<!-- Generator: Adobe Illustrator 19.0.0, SVG Export Plug-In . SVG Version: 6.00 Build 0)  -->
<svg version="1.1" id="Layer_1" xmlns="http://www.w3.org/2000/svg" xmlns:xlink="http://www.w3.org/1999/xlink" x="0px" y="0px"
	 viewBox="0 0 400 300" style="enable-background:new 0 0 400 300;" xml:space="preserve">
<style type="text/css">
	.st0{fill:none;stroke:#000000;stroke-width:4;stroke-miterlimit:10;}
	.st1{fill:#F7931E;stroke:#534741;stroke-width:3;stroke-miterlimit:10;}
	.st2{fill:#FCEE21;stroke:#FCEE21;stroke-width:3;stroke-miterlimit:10;}
</style>
<circle id="XMLID_5_" class="st0" cx="300.3" cy="226" r="50"/>
<circle id="XMLID_4_" class="st0" cx="105.3" cy="213.3" r="62"/>
<g id="XMLID_3_">
	<g id="XMLID_87_">
		<line id="XMLID_88_" class="st0" x1="58.8" y1="255.3" x2="152.3" y2="172.3"/>
	</g>
	<g id="XMLID_84_">
		<line id="XMLID_85_" class="st0" x1="72.8" y1="160.6" x2="138.3" y2="267.1"/>
	</g>
	<g id="XMLID_81_">
		<line id="XMLID_82_" class="st0" x1="163.6" y1="190.8" x2="47.4" y2="236.8"/>
	</g>
	<g id="XMLID_78_">
		<line id="XMLID_79_" class="st0" x1="118.1" y1="275.1" x2="93" y2="152.6"/>
	</g>
	<g id="XMLID_75_">
		<line id="XMLID_76_" class="st0" x1="43" y1="215.6" x2="168" y2="212.1"/>
	</g>
	<g id="XMLID_72_">
		<line id="XMLID_73_" class="st0" x1="114.7" y1="152" x2="96.4" y2="275.7"/>
	</g>
	<g id="XMLID_67_">
		<line id="XMLID_70_" class="st0" x1="164.8" y1="233.6" x2="46.2" y2="194.1"/>
	</g>
	<g id="XMLID_58_">
		<line id="XMLID_61_" class="st0" x1="75.8" y1="268.8" x2="135.3" y2="158.9"/>
	</g>
	<g id="XMLID_49_">
		<line id="XMLID_52_" class="st0" x1="56.5" y1="175" x2="154.5" y2="252.7"/>
	</g>
</g>
<g id="XMLID_6_">
	<circle id="XMLID_35_" class="st1" cx="105.2" cy="213.5" r="13.5"/>
	<circle id="XMLID_34_" class="st2" cx="105.5" cy="213.8" r="7.5"/>
</g>
<g id="XMLID_7_">
	<g id="XMLID_68_">
		<line id="XMLID_69_" class="st0" x1="312.1" y1="177.5" x2="287.9" y2="274.5"/>
	</g>
	<g id="XMLID_65_">
		<line id="XMLID_66_" class="st0" x1="350" y1="226.9" x2="250" y2="225.1"/>
	</g>
	<g id="XMLID_62_">
		<line id="XMLID_63_" class="st0" x1="310.4" y1="274.9" x2="289.6" y2="177.1"/>
	</g>
	<g id="XMLID_59_">
		<line id="XMLID_60_" class="st0" x1="254.7" y1="247.1" x2="345.3" y2="204.9"/>
	</g>
	<g id="XMLID_56_">
		<line id="XMLID_57_" class="st0" x1="269.2" y1="186.6" x2="330.8" y2="265.4"/>
	</g>
	<g id="XMLID_53_">
		<line id="XMLID_54_" class="st0" x1="331.5" y1="187.1" x2="268.5" y2="264.9"/>
	</g>
	<g id="XMLID_50_">
		<line id="XMLID_51_" class="st0" x1="344.9" y1="247.9" x2="255.1" y2="204.1"/>
	</g>
	<g id="XMLID_47_">
		<line id="XMLID_48_" class="st0" x1="288.8" y1="274.7" x2="311.2" y2="177.3"/>
	</g>
	<g id="XMLID_44_">
		<line id="XMLID_45_" class="st0" x1="250" y1="226" x2="350" y2="226"/>
	</g>
</g>
<circle id="XMLID_9_" class="st2" cx="300.5" cy="223.8" r="7.5"/>
</svg>
