<?xml version="1.0" encoding="utf-8"?>
<!-- Generator: Adobe Illustrator 19.0.0, SVG Export Plug-In . SVG Version: 6.00 Build 0)  -->
<svg version="1.1" id="Layer_1" xmlns="http://www.w3.org/2000/svg" xmlns:xlink="http://www.w3.org/1999/xlink" x="0px" y="0px"
	 viewBox="0 0 400 300" style="enable-background:new 0 0 400 300;" xml:space="preserve">
<style type="text/css">
	.st0{fill:none;stroke:#000000;stroke-width:3;stroke-miterlimit:10;}
	.st1{stroke:#000000;stroke-width:3;stroke-miterlimit:10;}
	.st2{fill:#009245;stroke:#000000;stroke-width:2;stroke-miterlimit:10;}
</style>
<line id="XMLID_44_" class="st0" x1="275.1" y1="88" x2="281.2" y2="130.6"/>
<line id="XMLID_43_" class="st0" x1="225" y1="102.2" x2="272.1" y2="143.8"/>
<g id="XMLID_42_">
	<path id="XMLID_46_" d="M236.5,128.2c0,0,0.2,0.5,0.4,1.4c0.1,0.4,0.2,1,0.4,1.6c0.1,0.3,0.1,0.6,0.2,1c0,0.2,0,0.3,0,0.5
		c-0.1,0.2-0.1,0.3-0.1,0.5c-0.4,2.9-0.9,6.7-1.4,10.5c-0.5,3.8-1,7.6-1.4,10.5c0,0.2-0.1,0.4-0.1,0.5c0,0.2,0,0.3-0.1,0.5
		c-0.2,0.3-0.3,0.6-0.5,0.9c-0.3,0.6-0.6,1-0.8,1.4c-0.5,0.8-0.7,1.2-0.7,1.2s-0.2-0.5-0.4-1.4c-0.1-0.4-0.2-1-0.4-1.6
		c-0.1-0.3-0.1-0.6-0.2-1c0-0.2,0-0.3,0-0.5c0-0.2,0.1-0.3,0.1-0.5c0.4-2.9,0.9-6.7,1.4-10.5c0.5-3.8,1-7.6,1.4-10.5
		c0-0.2,0.1-0.4,0.1-0.5c0-0.2,0-0.3,0.1-0.5c0.2-0.3,0.3-0.6,0.5-0.9c0.3-0.6,0.6-1,0.8-1.4C236.2,128.6,236.5,128.2,236.5,128.2z"
		/>
</g>
<g id="XMLID_41_">
	<path id="XMLID_48_" d="M235.5,91.3c0,0-0.2,0.5-0.5,1.3c-0.2,0.4-0.4,0.9-0.6,1.5c-0.1,0.3-0.3,0.6-0.4,0.9
		c-0.1,0.2-0.2,0.3-0.3,0.4c-0.1,0.1-0.2,0.2-0.4,0.4c-2,2-4.6,4.8-7.2,7.5c-2.6,2.7-5.3,5.5-7.2,7.5c-0.1,0.1-0.3,0.2-0.4,0.4
		c-0.1,0.1-0.2,0.3-0.4,0.3c-0.3,0.2-0.6,0.3-0.9,0.4c-0.5,0.3-1,0.5-1.5,0.7c-0.8,0.4-1.3,0.5-1.3,0.5s0.2-0.5,0.5-1.3
		c0.2-0.4,0.4-0.9,0.6-1.5c0.1-0.3,0.3-0.6,0.4-0.9c0.1-0.2,0.2-0.3,0.3-0.4c0.1-0.1,0.2-0.2,0.4-0.4c2-2,4.6-4.8,7.2-7.5
		c2.6-2.7,5.3-5.5,7.2-7.5c0.1-0.1,0.3-0.2,0.3-0.4c0.1-0.1,0.2-0.3,0.4-0.3c0.3-0.2,0.6-0.3,0.9-0.4c0.5-0.3,1-0.5,1.5-0.7
		C235,91.5,235.5,91.3,235.5,91.3z"/>
</g>
<path id="XMLID_40_" class="st1" d="M167.4,96.3c-2.9-1.6-5-2-6.4-1.2c-3.7,2.1-1.5,13.2,6.4,33.1c16,0,32.1,0,48.1,0
	c1.9-3.1,1.7-5.2,1.3-6.4c-2.6-7.3-20.9-3.2-36.5-12.7C173.8,105.1,169.8,100,167.4,96.3z"/>
<path id="XMLID_5_" class="st1" d="M88.3,89.6c-2.9-1.6-5-2-6.4-1.2c-3.7,2.1-1.5,13.2,6.4,33.1c16,0,32.1,0,48.1,0
	c1.9-3.1,1.7-5.2,1.3-6.4c-2.6-7.3-20.9-3.2-36.5-12.7C94.7,98.3,90.7,93.2,88.3,89.6z"/>
<path id="XMLID_4_" class="st2" d="M329.6,144.1c-0.1-0.5-0.1-1-0.2-1.5c-0.7-5.1-1.9-9.7-3.2-13.7c-16-0.6-32-1.2-48-1.8
	c-2.7,7.5-6.3,12.8-9,16.1c-2.8,3.4-5,6.2-9,8.5c-1.7,1-5.8,3-17.6,3.6c-5.4,0.3-12.9,0.3-21.8-0.9c-0.6-1.4-1.4-3.6-1.9-6.4
	c-1.1-5.5-0.1-8-0.3-14.6c-0.2-6.3-0.3-9.4-2.2-11.8c-3.4-4.4-10.5-4.5-14.1-4.6c-17.1-0.2-39.9-0.3-66.9,0
	c-8.9,1.2-15.8,0.6-20.2,0c-5.3-0.8-8.5-1.9-9.9-2.4c-2.9-1.1-5.5-2.5-8.6-4.6c-3.9-2.5-9.7-6.8-16.3-13.3c1.3,4.9,2.9,12,4.5,20.6
	c1.5,8.5,2.3,15.1,2.9,20.4c28.7,3.7,66.6,14.7,62.8,49c9.6,2.4,11.1,2.6,12.2,2.8c1.3,0.2,2.9,0.4,13.8,0.3
	c10.8-0.1,18.9-0.3,19.2-0.3c29.2-0.8,43.8-1.3,44.2-1.2c2.8,0.3,8.8,1.1,15.1-1.5c2.5-1.1,4.4-2.4,7-4.2c5.8-4,9.5-7.8,9.9-8.2
	c0.2-0.2,0.4-0.4,0.7-0.6C287.4,158.5,306.8,147.7,329.6,144.1z"/>
<g id="XMLID_3_">
	<path id="XMLID_50_" d="M71.5,138.9c4.4-0.6,8.8-0.9,13.2-1c4.4,0,8.9,0.1,13.3,0.6c2.2,0.3,4.4,0.5,6.6,0.9
		c2.2,0.4,4.4,0.8,6.5,1.2c2.2,0.4,4.4,0.9,6.6,1.4c2.2,0.5,4.4,1.1,6.6,1.9c2.2,0.7,4.3,1.6,6.4,2.7c2.1,1.1,4.1,2.3,6,3.8
		c0.9,0.8,1.8,1.5,2.7,2.3l0.7,0.6l0.6,0.7l1.1,1.2c0.4,0.4,0.8,0.9,1.1,1.4l1.1,1.5c0.7,1,1.3,2,2,3c0.6,1,1.2,2.1,1.7,3.2l0.8,1.6
		l0.7,1.7c0.5,1.1,0.8,2.2,1.1,3.4c0.3,1.1,0.6,2.3,0.9,3.4c1,4.6,1.2,9.4,1,14l-3.6-3.8c9.2-0.1,18.4-0.3,27.5-0.4
		c9.2-0.1,18.4-0.1,27.5-0.2l13.8,0l13.8,0l13.8,0.1l13.8,0.1l-3,1.6c2.7-3.8,5.7-7.5,9-10.9c3.2-3.4,6.7-6.6,10.3-9.6
		c1.8-1.5,3.7-2.9,5.5-4.2c1.9-1.4,3.7-2.7,5.6-4.1c1.9-1.3,3.9-2.6,5.9-3.8c2-1.2,4.1-2.3,6.2-3.3c1.1-0.5,2.2-1,3.2-1.5
		c1.1-0.5,2.2-0.9,3.3-1.3c1.1-0.4,2.3-0.7,3.4-1.1l3.5-0.8l3.5-0.6l3.5-0.3l3.5,0l3.5,0.2c1.2,0.1,2.3,0.3,3.5,0.5
		c1.2,0.2,2.3,0.5,3.4,0.8c2.3,0.6,4.4,1.4,6.6,2.3c4.3,1.8,8.2,4.3,11.7,7.2c-1.9-1.2-3.9-2.3-6-3.3c-2.1-1-4.2-1.8-6.3-2.5
		c-2.1-0.7-4.3-1.2-6.5-1.6c-1.1-0.2-2.2-0.3-3.3-0.4c-1-0.1-2.3-0.2-3.3-0.2l-3.3,0l-3.3,0.3l-3.2,0.6l-3.2,0.8l-3.1,1
		c-1,0.4-2,0.8-3.1,1.2c-1,0.5-2,0.9-3,1.4c-1,0.5-2,1-2.9,1.5c-1.9,1.1-3.8,2.2-5.6,3.5c-0.9,0.6-1.8,1.3-2.7,1.9
		c-0.9,0.6-1.8,1.3-2.7,2c-1.8,1.3-3.5,2.8-5.3,4.2c-1.8,1.5-3.5,2.8-5.1,4.3c-1.7,1.5-3.3,3-4.8,4.6c-1.5,1.6-3.1,3.2-4.5,4.8
		c-2.9,3.3-5.6,6.8-8,10.5l-1,1.5l-1.9,0l-13.8,0.2l-13.8,0.1l-13.8,0.1l-13.8,0.1c-9.2,0-18.4,0-27.5,0c-9.2,0-18.4-0.2-27.5-0.3
		l-3.9,0l0.3-3.8c0.3-4.1,0.2-8.3-0.5-12.3c-0.1-1-0.4-2-0.6-3c-0.3-1-0.5-2-0.9-2.9l-0.5-1.4l-0.6-1.4c-0.4-1-0.9-1.8-1.3-2.7
		c-0.5-0.9-1-1.8-1.5-2.6l-0.8-1.2c-0.3-0.4-0.5-0.8-0.9-1.2l-1.1-1.3l-0.5-0.5l-0.5-0.5c-0.7-0.7-1.4-1.4-2.2-2.1
		c-1.5-1.3-3.2-2.5-5-3.6c-1.8-1-3.7-1.9-5.6-2.8c-3.9-1.6-8.1-2.8-12.3-3.9c-2.1-0.6-4.3-1.1-6.4-1.7c-2.1-0.5-4.2-1-6.4-1.4
		c-2.1-0.4-4.3-0.8-6.5-1.1c-2.2-0.3-4.3-0.6-6.5-0.7C80.4,139.1,76,138.9,71.5,138.9z"/>
</g>
</svg>
