<?xml version="1.0" encoding="utf-8"?>
<!-- Generator: Adobe Illustrator 19.0.0, SVG Export Plug-In . SVG Version: 6.00 Build 0)  -->
<svg version="1.1" id="Layer_2" xmlns="http://www.w3.org/2000/svg" xmlns:xlink="http://www.w3.org/1999/xlink" x="0px" y="0px"
	 viewBox="0 0 400 300" style="enable-background:new 0 0 400 300;" xml:space="preserve">
<style type="text/css">
	.st0{fill:#150500;stroke:#191919;stroke-miterlimit:10;}
	.st1{fill:#FFFEE9;stroke:#FFFFFF;stroke-miterlimit:10;}
	.st2{fill:#FFFFFF;}
	.st3{fill:#150500;stroke:#333333;stroke-width:5;stroke-miterlimit:10;}
</style>
<path class="st0" d="M44.5,189.5c-0.6-5-1.2-10-1.8-15c12-13.8,19.3-26.9,23.8-36.3c6.7-14.3,9.1-24.6,18.8-37.5
	c6.7-8.9,13.2-13.9,16.1-16.1c7-5.4,17.3-11.3,56.5-15.6c16.9-1.9,33.1-1.4,65.5-0.6c10.8,0.3,17.8,0.6,25.1,6.3
	c12.5,9.7,11.3,23.5,22,33.4c10,9.3,17.2,3,41.3,4.6c19.2,1.3,47.7,3.3,60.1,26c3,5.5,12.3,19.4,5.4,40.9
	c-4.3,13.3-7.6,13.8-7.6,13.8L44.5,189.5z"/>
<path class="st1" d="M273.6,193.5H370c0.6-3.8,2.5-19.4-4.9-34c-11.1-22-32.7-20.9-33.6-20.8c-5.6,1-13.6,3.6-20.6,11
	c-7.3,7.7-8.3,15-15.2,24.8C291.5,180.3,284.8,187.8,273.6,193.5z"/>
<path class="st2" d="M144.9,110.5c0.9-4.7,2.9-12.2,8.1-18.5c8.8-10.6,23-12.8,36.3-5.8c0.9,1.3,3.4,5.1,4,11
	c0.7,6.8-1.6,11.8-2.2,13.3C175.7,110.5,160.3,110.5,144.9,110.5z"/>
<path class="st2" d="M103.2,112.2c-1-4.7-0.7-8.1,0-10.4C106.6,90,123.2,84,144.5,88c-0.1,2.7-0.5,6.9-2.2,11.5
	c-2.5,6.7-6.2,10.5-8.1,12.1C123.9,111.8,113.5,112,103.2,112.2z"/>
<path class="st2" d="M201,95.6c0.3,6-0.1,10.9-0.4,14.1c7.6,0.3,15.2,0.6,22.8,0.9c4,0.5,22.5,2.5,24.2-4.6
	c0.9-3.8-3.5-8.9-6.3-12.1c-7.9-9-17-10.5-23.8-11.5c-6-0.9-14.3-2.1-16.6,2.9C200,87.3,200.7,89.2,201,95.6z"/>
<path class="st2" d="M245.1,90.1c4.7,7.9,9.4,15.8,14,23.6c2.6-0.8,5.2-1.5,7.8-2.3c-4.4-8.1-8.8-16.1-13.2-24.2
	c-1.4-2.9-4.1-4-6.2-2.7C246,85.5,245.1,87.7,245.1,90.1z"/>
<path class="st3" d="M144.5,112.2c-2.9,7.3-5.8,12.8-8.1,16.5c-4.7,7.9-8.4,11.5-7.8,16.5c0.4,3.2,2.1,3.7,4.5,7.7
	c5.9,9.8,2.2,17.8,6.3,23.5c3.3,4.6,8.5,3,20.9,1.9c6.6-0.6,16.1-1,27.8-0.4c0.8-21.9,1.6-43.8,2.4-65.7H144.5z"/>
<path class="st3" d="M200.5,112.2l-1.6,67.3c16.3,0.9,32.7,1.8,49,2.7c-0.1-23.2-0.2-46.4-0.3-69.6
	C231.9,112.5,216.2,112.3,200.5,112.2z"/>
</svg>
